<svg width="50" height="50" viewBox="0 0 50 50" fill="none" xmlns="http://www.w3.org/2000/svg">
<rect width="50" height="50" rx="25" fill="#000AFB"/>
<path d="M30.3333 38.3335V33.1735C30.3833 32.5377 30.2974 31.8985 30.0814 31.2985C29.8653 30.6985 29.5239 30.1513 29.08 29.6935C33.2667 29.2268 37.6667 27.6401 37.6667 20.3601C37.6663 18.4986 36.9503 16.7084 35.6667 15.3601C36.2745 13.7315 36.2315 11.9313 35.5467 10.3335C35.5467 10.3335 33.9733 9.86679 30.3333 12.3068C27.2773 11.4785 24.056 11.4785 21 12.3068C17.36 9.86679 15.7867 10.3335 15.7867 10.3335C15.1018 11.9313 15.0588 13.7315 15.6667 15.3601C14.3735 16.7184 13.6567 18.5247 13.6667 20.4001C13.6667 27.6268 18.0667 29.2135 22.2533 29.7335C21.8147 30.1867 21.4763 30.7273 21.2604 31.32C21.0445 31.9127 20.9557 32.5442 21 33.1735V38.3335M21 34.3335C14.3333 36.3335 14.3333 31.0001 11.6667 30.3335L21 34.3335Z" stroke="white" stroke-width="2" stroke-linecap="round" stroke-linejoin="round"/>
</svg>
